<svg width="17" height="17" viewBox="0 0 17 17" fill="none" xmlns="http://www.w3.org/2000/svg">
<g clip-path="url(#clip0_3221_466)">
<path d="M13.8125 2.125H12.2188V1.59375C12.2188 1.45285 12.1628 1.31773 12.0632 1.2181C11.9635 1.11847 11.8284 1.0625 11.6875 1.0625C11.5466 1.0625 11.4115 1.11847 11.3118 1.2181C11.2122 1.31773 11.1562 1.45285 11.1562 1.59375V2.125H5.84375V1.59375C5.84375 1.45285 5.78778 1.31773 5.68815 1.2181C5.58852 1.11847 5.4534 1.0625 5.3125 1.0625C5.1716 1.0625 5.03648 1.11847 4.93685 1.2181C4.83722 1.31773 4.78125 1.45285 4.78125 1.59375V2.125H3.1875C2.90571 2.125 2.63546 2.23694 2.4362 2.4362C2.23694 2.63546 2.125 2.90571 2.125 3.1875V13.8125C2.125 14.0943 2.23694 14.3645 2.4362 14.5638C2.63546 14.7631 2.90571 14.875 3.1875 14.875H13.8125C14.0943 14.875 14.3645 14.7631 14.5638 14.5638C14.7631 14.3645 14.875 14.0943 14.875 13.8125V3.1875C14.875 2.90571 14.7631 2.63546 14.5638 2.4362C14.3645 2.23694 14.0943 2.125 13.8125 2.125ZM13.8125 5.3125H3.1875V3.1875H4.78125V3.71875C4.78125 3.85965 4.83722 3.99477 4.93685 4.0944C5.03648 4.19403 5.1716 4.25 5.3125 4.25C5.4534 4.25 5.58852 4.19403 5.68815 4.0944C5.78778 3.99477 5.84375 3.85965 5.84375 3.71875V3.1875H11.1562V3.71875C11.1562 3.85965 11.2122 3.99477 11.3118 4.0944C11.4115 4.19403 11.5466 4.25 11.6875 4.25C11.8284 4.25 11.9635 4.19403 12.0632 4.0944C12.1628 3.99477 12.2188 3.85965 12.2188 3.71875V3.1875H13.8125V5.3125Z" fill="#282A3A"/>
</g>
<defs>
<clipPath id="clip0_3221_466">
<rect width="17" height="17" fill="white"/>
</clipPath>
</defs>
</svg>
