<svg xmlns="http://www.w3.org/2000/svg">
    
    <symbol id="arrow" viewBox="0 0 24 24" fill="none" stroke="#000000">
        <path d="M6 6L18 18M18 18L18 9M18 18L9 18" stroke="currentcolor" stroke-width="1.5" stroke-linecap="round" stroke-linejoin="round"></path>
    </symbol>
    <symbol id="logo" viewBox="0 0 40 40" fill="none">
        <path d="M0 19H8.77393C10.7759 19 12.8501 18.8779 14.5542 17.8279C15.8862 17.0073 17.0073 15.886 17.8281 14.554C18.8779 12.8501 19 10.7759 19 8.77393V0H6C4.40869 0 2.88281 0.63208 1.75732 1.75732C0.632324 2.88257 0 4.40869 0 6V19Z" fill="currentcolor"/>
        <path d="M40 20C40 31.0459 31.0459 40 20 40C9.29004 40 0.546875 31.5811 0.0239258 21H8.77393C10.7759 21 12.8501 21.1221 14.5537 22.1721C15.7749 22.9238 16.8203 23.9294 17.6187 25.1206C18.417 26.3118 18.9497 27.6606 19.1812 29.0759L19.2432 29.459C19.2969 29.6169 19.3989 29.7539 19.5347 29.8511C19.6172 29.9099 19.7095 29.9521 19.8062 29.9763C19.8691 29.9922 19.9341 30.0002 20 30.0002C20.167 30.0002 20.3296 29.948 20.4653 29.8511C20.6011 29.7539 20.7031 29.6169 20.7568 29.459L20.8188 29.0759C21.1567 27.0081 22.1353 25.0986 23.6172 23.6172C25.0986 22.1355 27.0083 21.1567 29.0757 20.8191L29.459 20.7571C29.6167 20.7031 29.7539 20.6011 29.8511 20.4653C29.9482 20.3296 30 20.1667 30 20C30 19.8333 29.9482 19.6704 29.8511 19.5347C29.7944 19.4553 29.7241 19.3875 29.6436 19.334C29.5864 19.2961 29.5244 19.2654 29.459 19.2429L29.0757 19.1809C27.6606 18.95 26.3115 18.4172 25.1206 17.6189C23.9292 16.8206 22.9238 15.7751 22.1719 14.554C21.1221 12.8501 21 10.7759 21 8.77393V0H34C35.5913 0 37.1172 0.63208 38.2427 1.75732C39.3677 2.88257 40 4.40869 40 6V20Z" fill="currentcolor"/>
    </symbol>
    <symbol id="search" width="24" height="24" viewBox="0 0 24 24" fill="none">
        <g clip-path="url(#clip0_3207_411)">
            <path d="M10.5 18C14.6421 18 18 14.6421 18 10.5C18 6.35786 14.6421 3 10.5 3C6.35786 3 3 6.35786 3 10.5C3 14.6421 6.35786 18 10.5 18Z" stroke="#282A3A" stroke-linecap="round" stroke-linejoin="round"/>
            <path d="M15.8037 15.8035L21.0003 21" stroke="#282A3A" stroke-linecap="round" stroke-linejoin="round"/>
        </g>
        <defs>
            <clipPath id="clip0_3207_411">
            <rect width="24" height="24" fill="white"/>
        </clipPath>
        </defs>
    </symbol>
    <symbol id="bag" viewBox="0 0 24 24" fill="none">
        <g clip-path="url(#clip0_3223_484)">
            <path d="M20.25 4.5H3.75C3.33579 4.5 3 4.83579 3 5.25V18.75C3 19.1642 3.33579 19.5 3.75 19.5H20.25C20.6642 19.5 21 19.1642 21 18.75V5.25C21 4.83579 20.6642 4.5 20.25 4.5Z" stroke="#282A3A" stroke-linecap="round" stroke-linejoin="round"/>
            <path d="M3 7.5H21" stroke="#282A3A" stroke-linecap="round" stroke-linejoin="round"/>
            <path d="M15.75 10.5C15.75 11.4946 15.3549 12.4484 14.6517 13.1517C13.9484 13.8549 12.9946 14.25 12 14.25C11.0054 14.25 10.0516 13.8549 9.34835 13.1517C8.64509 12.4484 8.25 11.4946 8.25 10.5" stroke="#282A3A" stroke-linecap="round" stroke-linejoin="round"/>
        </g>
        <defs>
            <clipPath id="clip0_3223_484">
            <rect width="24" height="24" fill="white"/>
            </clipPath>
        </defs>
    </symbol>
    <symbol id="separator-h" viewBox="0 0 1120 1" fill="none">
        <path d="M560 1C225.23 0.900198 0 0.71365 0 0.5C0 0.28635 225.23 0.0998016 560 0C894.77 0.0998016 1120 0.28635 1120 0.5C1120 0.71365 894.77 0.900198 560 1Z" fill="currentcolor"/>
    </symbol>
    <symbol id="separator-v" viewBox="0 0 2 114" fill="none">
        <path d="M1 114C0.701099 102.623 0.5 81.3561 0.5 57C0.5 32.6439 0.701099 11.3774 1 0C1.2989 11.3774 1.5 32.6439 1.5 57C1.5 81.3561 1.2989 102.623 1 114Z" fill="currentcolor"/>
    </symbol>
    <symbol id="plus" viewBox="0 0 80 32" fill="none">
        <g clip-path="url(#clip0_3219_378)">
            <rect width="80" height="32" rx="8" fill="currentcolor"/>
            <path d="M32 16H48" stroke="white" stroke-width="2" stroke-linecap="round" stroke-linejoin="round"/>
            <path d="M40 8V24" stroke="white" stroke-width="2" stroke-linecap="round" stroke-linejoin="round"/>
        </g>
        <defs>
            <clipPath id="clip0_3219_378">
                <rect width="80" height="32" rx="8" fill="white"/>
            </clipPath>
        </defs>
    </symbol>
    <symbol id="star" viewBox="0 0 19 19" fill="none">
        <path d="M8.38195 0.927052C8.6813 0.00574112 9.98471 0.00573993 10.2841 0.927051L11.8027 5.60081C11.9365 6.01284 12.3205 6.2918 12.7537 6.2918H17.668C18.6367 6.2918 19.0395 7.53141 18.2558 8.10081L14.28 10.9894C13.9296 11.244 13.7829 11.6954 13.9168 12.1074L15.4354 16.7812C15.7347 17.7025 14.6802 18.4686 13.8965 17.8992L9.92079 15.0106C9.57031 14.756 9.09571 14.756 8.74522 15.0106L4.76948 17.8992C3.98577 18.4686 2.93129 17.7025 3.23064 16.7812L4.74924 12.1074C4.88311 11.6954 4.73645 11.244 4.38597 10.9894L0.410229 8.10081C-0.373485 7.53141 0.0292904 6.2918 0.998014 6.2918H5.9123C6.34552 6.2918 6.72948 6.01284 6.86335 5.60081L8.38195 0.927052Z" fill="currentcolor"/>
    </symbol>
</svg>