<svg width="18" height="17" viewBox="0 0 18 17" fill="none" xmlns="http://www.w3.org/2000/svg">
<g clip-path="url(#clip0_3221_461)">
<path d="M16.0026 14.6094C15.956 14.6901 15.8889 14.7572 15.8081 14.8038C15.7273 14.8505 15.6357 14.875 15.5424 14.875H2.79242C2.69922 14.8749 2.60767 14.8503 2.52699 14.8036C2.44631 14.7569 2.37932 14.6899 2.33276 14.6091C2.28619 14.5284 2.26169 14.4368 2.26172 14.3436C2.26174 14.2504 2.28629 14.1588 2.33289 14.0781C3.34426 12.3296 4.90281 11.0759 6.72168 10.4815C5.82199 9.94594 5.12298 9.12982 4.73201 8.15851C4.34104 7.1872 4.27972 6.1144 4.55746 5.10486C4.83521 4.09532 5.43667 3.20487 6.26947 2.57025C7.10228 1.93562 8.12038 1.59192 9.16742 1.59192C10.2145 1.59192 11.2326 1.93562 12.0654 2.57025C12.8982 3.20487 13.4996 4.09532 13.7774 5.10486C14.0551 6.1144 13.9938 7.1872 13.6028 8.15851C13.2119 9.12982 12.5129 9.94594 11.6132 10.4815C13.432 11.0759 14.9906 12.3296 16.002 14.0781C16.0487 14.1588 16.0733 14.2504 16.0735 14.3436C16.0736 14.4369 16.0491 14.5285 16.0026 14.6094Z" fill="#282A3A"/>
</g>
<defs>
<clipPath id="clip0_3221_461">
<rect width="17" height="17" fill="white" transform="translate(0.666992)"/>
</clipPath>
</defs>
</svg>
